<?xml version="1.0" encoding="UTF-8" standalone="no"?>
<!-- Generator: Adobe Illustrator 19.2.1, SVG Export Plug-In . SVG Version: 6.00 Build 0)  -->

<svg
   xmlns:dc="http://purl.org/dc/elements/1.1/"
   xmlns:cc="http://creativecommons.org/ns#"
   xmlns:rdf="http://www.w3.org/1999/02/22-rdf-syntax-ns#"
   xmlns:svg="http://www.w3.org/2000/svg"
   xmlns="http://www.w3.org/2000/svg"
   xmlns:sodipodi="http://sodipodi.sourceforge.net/DTD/sodipodi-0.dtd"
   xmlns:inkscape="http://www.inkscape.org/namespaces/inkscape"
   version="1.1"
   x="0px"
   y="0px"
   viewBox="0 0 432 432"
   style="enable-background:new 0 0 432 432;"
   xml:space="preserve"
   id="svg2"
   inkscape:version="0.91 r13725"
   sodipodi:docname="church.svg"><metadata
     id="metadata52"><rdf:RDF><cc:Work
         rdf:about=""><dc:format>image/svg+xml</dc:format><dc:type
           rdf:resource="http://purl.org/dc/dcmitype/StillImage" /></cc:Work></rdf:RDF></metadata><defs
     id="defs50" /><sodipodi:namedview
     pagecolor="#ffffff"
     bordercolor="#666666"
     borderopacity="1"
     objecttolerance="10"
     gridtolerance="10"
     guidetolerance="10"
     inkscape:pageopacity="0"
     inkscape:pageshadow="2"
     inkscape:window-width="1366"
     inkscape:window-height="711"
     id="namedview48"
     showgrid="false"
     inkscape:zoom="0.5462963"
     inkscape:cx="216"
     inkscape:cy="216"
     inkscape:window-x="0"
     inkscape:window-y="27"
     inkscape:window-maximized="1"
     inkscape:current-layer="svg2" /><style
     type="text/css"
     id="style4">
	.st0{fill:none;stroke:#FFFFFF;stroke-width:3;stroke-linecap:round;stroke-linejoin:round;stroke-miterlimit:10;}
	.st1{fill:none;stroke:#FFFFFF;stroke-width:3;stroke-miterlimit:10;}
	.st2{stroke:#FFFFFF;stroke-width:3;stroke-miterlimit:10;}
</style><g
     id="Layer_10" /><g
     id="Layer_12" /><g
     id="Layer_11" /><g
     id="Layer_2" /><g
     id="Layer_3" /><g
     id="Layer_4" /><g
     id="Layer_5" /><g
     id="Layer_6" /><g
     id="Layer_7" /><g
     id="Layer_8" /><g
     id="Layer_14" /><g
     id="Layer_13"
     transform="matrix(1.3781645,0,0,1.4444896,-83.33622,-85.508224)"><g
       id="g18"><polygon
         class="st0"
         points="191.6,229.6 182.6,261 185.7,260.9 180.7,272.1 200.2,229.6 212.3,118.4 "
         id="polygon20"
         style="fill:none;stroke:#FFFFFF;stroke-width:3;stroke-linecap:round;stroke-linejoin:round;stroke-miterlimit:10" /><polygon
         class="st0"
         points="174.6,262.1 177.1,262.1 176.9,261.1 181,261 190.9,229.7 174.6,229.7 "
         id="polygon22"
         style="fill:none;stroke:#FFFFFF;stroke-width:3;stroke-linecap:round;stroke-linejoin:round;stroke-miterlimit:10" /><path
         class="st0"
         d="m 217.9,66.1 c -83.3,0 -150.8,67.5 -150.8,150.8 0,9.5 0.9,18.8 2.6,27.8 l 0.1,-7.7 c 0,0 5,-6.8 7.8,-6.8 2.8,0 -1.8,-6.5 -1.8,-6.5 0,0 4.5,2.5 7.2,1.8 2.7,-0.7 3.8,2.8 3.8,2.8 0,0 3.5,1.2 4.2,-1.8 0.7,-3 0.8,-3.5 -0.2,-4.2 -1,-0.7 -2.8,-1.2 -1,-1.8 1.8,-0.6 0.2,-1.8 2.8,-0.8 2.6,1 5.8,2 6,1 0.2,-1 0.5,1 1,3.2 0.5,2.2 2.2,5.5 2.2,5.5 0,0 2.8,2.2 4,1.2 1.2,-1 1.8,-2 1.8,-2 l 1.8,2 c 0,0 1.2,0.5 3.2,-1 2,-1.5 3.2,-3 3.2,-3 0,0 0,-1.2 3,1.2 0,0 2,0.8 2.6,2.9 0.6,2.1 0.2,3.6 2,4.2 1.8,0.6 2.5,2.4 1.2,3.9 -1.3,1.5 -2.4,1.6 -1.8,3.5 0.6,1.9 -2.1,1.8 1.8,2.4 3.9,0.6 8.8,-1.6 12.8,3.5 4,5.1 1.2,7 1.2,7 l -3.5,5.1 c 0,0 1.6,1.4 3.1,-0.1 1.5,-1.5 0.4,6.6 -1.2,6.2 -1.6,-0.4 -2.4,-0.4 -3.1,0.6 -0.7,1 -1.4,-0.2 -1.1,2.5 0.3,2.7 1.6,1.4 1.2,3.9 -0.4,2.5 -1.2,0.6 -0.5,3.1 0.7,2.5 0.5,2.4 1.6,3.1 1.1,0.7 0.4,-1 2.2,1.1 1.8,2.1 2,0.2 2.1,2.8 0.1,2.6 5,4.4 6.6,3 1.6,-1.4 3.5,-2.4 5.2,0.6 1.7,3 3.1,4.2 2.1,5.4 -1,1.2 -1.8,1.9 -2.6,2.2 -0.8,0.3 -3.5,-0.4 -3.2,2.5 0.3,2.9 2.4,3.5 3,4.2 0.6,0.7 0.8,0.9 1.1,2.2 0.3,1.3 2,2.5 2.9,2.5 0.9,0 5.1,-2.5 6.4,-1.4 1.3,1.1 1,2.2 0.6,4.2 -0.4,2 -1.5,6.4 2,6.4 3.5,0 4.4,-2.5 5.9,0.1 1.5,2.6 3.6,4.5 6.9,2.8 2.3,-1.2 2.7,-2.4 3.5,-2 l 0,-25.8 72.2,0 0,27.7 0,-27.7 -72.2,0 0,25.8 c 0.3,0.1 0.6,0.5 1.2,1.2 1.9,2.4 -0.1,3.4 2.5,4.8 2.6,1.4 3,2.5 5.1,2.6 2.1,0.1 1.6,-0.9 3.9,0.9 2.3,1.8 0.9,-1.1 2.6,2.8 1.7,3.9 2.9,7.4 5.1,6.6 2.2,-0.8 2,-0.6 3.6,0.8 1.6,1.4 4.5,1.8 6.2,0 1.7,-1.8 8.1,-6.4 8.8,-3.2 0.7,3.2 2,8 2,8 0,0 0.5,2.1 3.1,2.8 2.6,0.7 1.9,3 1.8,3.5 -0.1,0.5 1.6,6.2 4.6,4.2 3,-2 3.5,-4.9 4.9,-4.2 1.4,0.7 1.9,-0.4 2.5,-1.2 0.6,-0.8 1.8,-2.2 1.8,-2.2 0,0 0.2,-0.1 0.2,-1.4 0,-1.3 -0.6,-2.4 -0.6,-2.4 l -1.4,-2.1 c 0,0 -1.6,0 0.5,-1.8 2.1,-1.8 2.9,-2.1 4.5,-2.8 1.6,-0.7 3.4,1.1 4.5,-2.2 1.1,-3.3 1.5,-5.2 1,-7 -0.5,-1.8 -0.5,-2 1,-3.5 1.5,-1.5 3.5,-2.1 4.1,-2.5 0.6,-0.4 2.4,-1.5 2.9,-2.4 0.5,-0.9 2,0.1 -1,-5.9 1,-4.1 5,-3.9 5,-3.9 0,0 2.1,0.5 2.5,-1.1 0.4,-1.6 4.1,-2.9 4.9,-1.5 0.8,1.4 2.9,4.6 5.2,2.5 2.3,-2.1 2,-3 4.2,-1.2 2.2,1.8 2.5,2.2 3.8,-0.1 1.3,-2.3 1.4,-3.9 1.4,-3.9 0,0 -0.1,-1.6 -0.1,-2.2 0,-0.6 -0.2,-4.5 3.1,-3.9 3.3,0.6 4.9,0.9 4.9,0.9 0,0 1.8,-2.1 3,-1.9 1.2,0.2 4,-1.5 3.8,-4.6 -0.2,-3.1 -2.2,-7.2 1,-6.5 3.2,0.7 7.5,5 10,1.5 2.5,-3.5 0,-7.1 1.9,-7.1 1.9,0 3.9,-0.6 4.4,-1.5 0.5,-0.9 2.4,-7.1 2.8,-9.4 0.4,-2.3 6.2,-5.4 9.2,-2.6 3,2.8 5.6,4.4 6.4,1.5 0.8,-2.9 -2,-7.2 1.1,-7.5 3.1,-0.3 7.5,1.1 7.9,1.5 0.4,0.4 1.2,0.9 2.5,2.8 1.3,1.9 2.6,0.8 2.5,2.5 -0.1,1.7 -0.2,2.6 1.4,2.2 1.6,-0.4 3.5,-1.2 4.2,0.1 0.7,1.3 0.9,2.9 0.9,4.4 0,1.5 -0.4,3.1 0,5.1 0.4,2 0,2.8 1.5,2.9 0.5,0 0.8,0 1.1,-0.2 8.4,-18.8 13.1,-39.6 13.1,-61.6 C 368.7,133.6 301.2,66.1 217.9,66.1 Z m 21.6,268.1 0,-24.6 -6.1,0 0,4.9 -7.2,0 0,-5 -7,0 0,5.1 -6.8,0 0,-5 -7.4,0 -0.1,4.9 -6.7,0 0,-5 -6.2,0 0,15.2 0,-15.2 6.3,0 0,5 6.7,0 0.1,-4.9 7.4,0 0,5 6.8,0 0,-5.1 7,0 0,5 7.2,0 0,-4.9 6.1,0 0,24.6 z m 3.5,-104.5 15.2,-0.2 0,32.5 -6,0 0.2,0.8 4.7,0 -0.1,1.1 0.7,18.4 -9.2,-19.5 4,0 -0.2,-0.8 0,0 -0.4,-1.6 -9.5,-30.9 -22.7,-113.7 -1.1,-5.4 1.1,5.4 22.7,113.7 9.5,30.9 -8.9,-30.7 z m -27.8,-157.4 0,4.5 4.5,0 -4.5,0 0,13.4 0,-13.4 -4.4,0 4.4,0 0,-4.5 z m 0.3,19.2 c 3.3,0 6,2.7 6,6 0,3.3 -2.7,6 -6,6 -3.3,0 -6,-2.7 -6,-6 0,-3.3 2.7,-6 6,-6 z m -43.3,199 4.6,-10.1 0.2,-18.1 0,-0.1 -2.5,0 0,-32.5 16.3,0 -9.8,31.3 1.7,0 9,-31.4 20.7,-111.1 0.9,-8.1 c 0.3,-0.4 0.6,-0.8 0.9,-1 l -0.1,0 c -1.3,0.4 -2.7,0.1 -3.7,-0.8 -1.5,-1.5 -3.1,-3.2 -0.4,-3.8 0,0 5.6,-2 11,0 2.8,0.9 1.2,2.8 -0.4,4.1 -0.8,0.6 -1.7,0.9 -2.7,0.8 0.2,0.2 0.3,0.4 0.5,0.7 1.5,2.5 15.8,119.2 15.8,119.2 l 26,60.9 -88,0 z"
         id="path24"
         inkscape:connector-curvature="0"
         style="fill:none;stroke:#FFFFFF;stroke-width:3;stroke-linecap:round;stroke-linejoin:round;stroke-miterlimit:10" /><polygon
         class="st1"
         points="252.3,262 251.8,260.4 252.2,262 "
         id="polygon26"
         style="fill:none;stroke:#FFFFFF;stroke-width:3;stroke-miterlimit:10" /><polygon
         class="st1"
         points="251.8,260.4 252.3,262 258.2,262 258.2,229.5 243,229.7 "
         id="polygon28"
         style="fill:none;stroke:#FFFFFF;stroke-width:3;stroke-miterlimit:10" /><polygon
         class="st2"
         points="252.5,262.8 253.7,266.7 252.5,262.8 248.5,262.8 257.8,282.2 257.1,263.9 257.2,262.8 "
         id="polygon30"
         style="stroke:#FFFFFF;stroke-width:3;stroke-miterlimit:10" /><polygon
         class="st2"
         points="182.6,261 181,261 180.6,262.1 177.1,262.1 177.1,262.2 176.9,280.4 180.7,272.1 185.7,260.9 182.6,261 180.9,266.9 "
         id="polygon32"
         style="stroke:#FFFFFF;stroke-width:3;stroke-miterlimit:10" /><polygon
         class="st2"
         points="180.6,262.1 181,261 176.9,261.1 177.1,262.1 "
         id="polygon34"
         style="stroke:#FFFFFF;stroke-width:3;stroke-miterlimit:10" /><path
         class="st0"
         d="m 218.2,110.4 c -0.2,-0.3 -0.3,-0.5 -0.5,-0.7 -0.3,0 -0.7,-0.1 -1,-0.3 l 0,0 c -0.8,-0.3 -1.7,-0.4 -2.6,-0.1 l -0.1,0 c -0.3,0.3 -0.6,0.6 -0.9,1 l -0.9,8.1 1.5,-7.8 -1.5,7.8 -12,111.2 -19.5,42.5 -3.8,8.5 0,-0.2 -4.6,10.1 87.7,0 -26,-60.9 c 0,0 -14.2,-116.7 -15.8,-119.2 z m -1.4,166.4 c -6.9,0 -12.6,-5.6 -12.6,-12.6 0,-7 5.6,-12.6 12.6,-12.6 7,0 12.6,5.6 12.6,12.6 0,7 -5.7,12.6 -12.6,12.6 z m 19.4,-14.8 0,18.3 0,-18.3 4.7,0 -24.2,-33.3 -24.5,33.2 5.7,0 0,18.7 0,-18.7 -5.7,0 24.5,-33.2 24.2,33.3 -4.7,0 z"
         id="path36"
         inkscape:connector-curvature="0"
         style="fill:none;stroke:#FFFFFF;stroke-width:3;stroke-linecap:round;stroke-linejoin:round;stroke-miterlimit:10" /><polygon
         class="st2"
         points="180.7,272.1 176.9,280.4 176.9,280.6 "
         id="polygon38"
         style="stroke:#FFFFFF;stroke-width:3;stroke-miterlimit:10" /><circle
         class="st0"
         cx="216.8"
         cy="264.20001"
         r="12.6"
         id="circle40"
         style="fill:none;stroke:#FFFFFF;stroke-width:3;stroke-linecap:round;stroke-linejoin:round;stroke-miterlimit:10" /><path
         class="st0"
         d="m 217.8,109.7 c 1,0.1 1.9,-0.2 2.7,-0.8 1.5,-1.3 3.1,-3.2 0.4,-4.1 -5.4,-2 -11,0 -11,0 -2.8,0.6 -1.1,2.4 0.4,3.8 1,0.9 2.4,1.2 3.7,0.8 l 0.1,0 c 1.3,-1.3 2.5,-1.2 3.7,0.3 z"
         id="path42"
         inkscape:connector-curvature="0"
         style="fill:none;stroke:#FFFFFF;stroke-width:3;stroke-linecap:round;stroke-linejoin:round;stroke-miterlimit:10" /><path
         class="st0"
         d="m 216.7,109.4 0,0 c 0.4,0.2 0.7,0.2 1.1,0.3 -1.1,-1.4 -2.4,-1.5 -3.7,-0.3 l 0.1,0 c 0.8,-0.4 1.7,-0.3 2.5,0 z"
         id="path44"
         inkscape:connector-curvature="0"
         style="fill:none;stroke:#FFFFFF;stroke-width:3;stroke-linecap:round;stroke-linejoin:round;stroke-miterlimit:10" /><circle
         class="st0"
         cx="215.5"
         cy="97.5"
         r="6"
         id="circle46"
         style="fill:none;stroke:#FFFFFF;stroke-width:3;stroke-linecap:round;stroke-linejoin:round;stroke-miterlimit:10" /></g></g></svg>
